<svg width="29" height="27" viewBox="0 0 29 27" fill="none" xmlns="http://www.w3.org/2000/svg">
<path d="M1.09326 6C1.09326 3.23857 3.42587 1 6.30329 1H21.9334C24.8108 1 27.1434 3.23857 27.1434 6V21C27.1434 23.7614 24.8108 26 21.9334 26H6.30329C3.42587 26 1.09326 23.7614 1.09326 21V6Z" stroke="#292929" stroke-width="2" stroke-linecap="round" stroke-linejoin="round"/>
<path d="M14.118 19.0525C17.3151 19.0525 19.9069 16.5652 19.9069 13.497C19.9069 10.4287 17.3151 7.94141 14.118 7.94141C10.9209 7.94141 8.3291 10.4287 8.3291 13.497C8.3291 16.5652 10.9209 19.0525 14.118 19.0525Z" stroke="#292929" stroke-width="2" stroke-linecap="round" stroke-linejoin="round"/>
<path d="M21.9331 6.02662V5.99976" stroke="#292929" stroke-width="2" stroke-linecap="round" stroke-linejoin="round"/>
</svg>
