<svg width="173" height="134" viewBox="0 0 173 134" fill="none" xmlns="http://www.w3.org/2000/svg">
<path d="M66.0647 24.3C83.4779 15.9 105.535 21.5 114.083 38.2C120.204 50.5 117.777 65 106.696 75C98.1473 82.8 85.9052 86.1 73.6632 83.9C51.6064 79.4 39.3643 57.1 46.7518 38.2C51.6064 27.1 62.6875 18.1 76.0905 15.9C96.8809 13.7 117.777 27 121.365 46C123.792 58.3 118.938 70.5 109.123 78.3C109.123 77.2 110.389 77.2 110.389 76.1C95.72 89.5 72.3967 90.6 55.3001 79.4C40.6307 68.3 36.937 50.4 44.3245 34.8C54.1392 14.7 82.317 5.80002 104.374 17C117.882 23.7 125.164 35.9 126.431 49.3C127.697 72.7 105.64 92.8 79.8897 90.5H81.1561C59.0993 90.5 38.309 72.7 37.0426 52.6C35.7761 33.7 49.2846 16.9 68.9141 11.4C83.5834 8.10001 98.2528 9.20002 110.6 18.1C126.536 30.4 132.657 50.4 125.27 67.1C114.294 90.5 83.5835 99.4 59.0994 88.3C34.6153 76 26.0669 44.8 44.43 23.7C60.3658 4.8 88.5436 0.299997 110.6 13.7C131.391 27.1 137.512 51.6 126.536 71.7C114.294 92.9 86.1163 101.8 62.8986 92.9C44.5355 86.2 33.5599 70.6 31.0271 52.8C28.5998 24.9 57.9385 4.90001 86.1163 4.90001C72.6078 3.80001 60.3658 9.40002 49.3901 16C49.3901 13.8 50.6566 12.7 53.0839 12.7C27.3333 28.3 22.4788 62.9 44.5356 82.9C64.165 100.7 97.1975 101.8 116.827 82.9C136.456 65.1 136.456 33.9 114.4 17.1C93.6093 1.50002 64.165 1.50002 45.802 21.6C33.5599 35 31.1326 52.8 38.4145 68.4C45.802 82.9 62.8986 91.8 80.1008 95.2C78.8344 95.2 78.8344 95.2 77.6735 95.2C99.7303 96.3 120.521 84.1 127.908 65.1C131.602 52.8 130.335 39.5 121.787 28.3C107.118 8.2 76.5126 2.7 55.6167 17.2C28.7053 36.1 32.399 75.2 63.0042 87.4C81.3672 95.2 103.424 89.6 115.666 77.4C129.175 64 130.335 45.1 119.36 29.5C109.545 17.2 94.8757 10.6 77.6735 12.8C54.4558 16.1 37.2536 36.2 40.9473 57.4C45.8019 83 78.9399 97.5 103.424 84.2C119.36 75.3 126.642 57.4 121.787 40.7C113.239 17.3 80.1008 6.10002 58.1495 24C45.9075 32.9 41.0529 47.4 44.6411 60.8C52.0285 85.3 85.0609 94.2 107.118 77.5C114.505 71.9 119.36 64.1 120.626 55.2C120.626 40.7 112.078 25.1 96.1421 19.5C80.2063 13.9 63.1097 18.4 53.2949 31.8C41.0529 48.5 47.1739 70.8 65.537 79.7C82.6336 88.6 103.53 80.8 113.344 66.3C120.732 54 117.038 37.3 104.796 28.4C91.2875 18.4 72.9244 19.5 60.6824 29.5C48.4403 39.5 44.7466 57.4 56.9887 69.6C71.658 84.1 98.6749 84.1 109.651 65.1C115.772 54 114.505 39.5 102.263 30.5C94.8757 26 87.5938 22.7 79.0454 23.8C63.1097 26 53.2949 38.3 53.2949 51.7C54.5614 66.2 70.3916 79.6 87.5938 77.3C103.53 74 114.505 59.5 109.651 43.9C104.796 28.3 85.1665 22.7 70.4971 29.4C58.2551 35 53.4005 49.5 58.2551 60.6C65.6425 72.9 85.1665 79.5 98.6749 68.4C112.183 57.3 107.223 37.2 91.2875 30.5C79.0455 26 65.537 33.8 60.6824 43.9C58.2551 49.5 59.416 55 61.9488 60.6C66.8034 67.3 74.1908 71.7 82.7392 71.7C98.6749 71.7 107.223 57.2 102.369 44.9C98.6749 33.8 81.5783 27.1 70.4971 36C60.6824 43.8 59.5215 57.2 70.4971 65C76.6181 69.5 85.1665 70.6 91.2875 66.1C98.6749 61.6 103.53 52.7 98.6749 43.8C92.5539 33.8 75.4573 32.7 69.3363 43.8C65.6425 51.6 70.6027 58.3 75.4573 63.9C66.9089 58.3 64.4816 49.4 70.6027 41.6C74.2964 38.3 80.4174 34.9 86.5384 36C101.208 37.1 103.635 52.7 97.5141 61.6C88.9657 71.6 73.03 72.7 64.4816 60.5C58.3606 50.5 63.2152 39.3 73.03 33.7C84.0056 27 97.5141 33.7 103.635 43.7C107.329 50.4 104.901 56 101.208 61.5C95.0868 74.9 71.8691 76 62.0543 62.6C53.506 50.3 58.3606 35.8 71.8691 29.2C77.9901 27 85.3775 27 92.6594 29.2C100.047 32.5 106.168 38.1 108.595 45.9C112.289 62.6 98.7805 77.1 80.4174 76C58.3606 73.8 47.385 50.4 60.7879 34.8C70.6027 23.7 90.1266 21.4 102.474 31.5C108.595 37.1 112.289 44.9 112.289 53.8C111.023 69.4 95.1923 80.6 77.9901 78.3C62.0543 76.1 49.8123 62.7 51.0787 48.2C52.3451 40.4 54.7724 33.7 62.0543 29.3V30.4C73.0299 19.3 91.393 20.4 103.741 29.3C115.983 39.3 119.676 54.9 111.128 67.2C101.313 79.5 84.2167 86.1 68.2809 78.3C48.6514 68.3 45.0632 43.7 59.8381 29.6C61.2101 27.7 63.5318 25.8 66.0647 24.3Z" fill="#579994"/>
<path d="M7.41898 104.916V120.806L11.2135 122.229V122.94H2.20155V122.229L5.99605 120.806V100.647L2.67587 99.936V99.2245H9.07907C10.6285 99.2245 11.8775 99.5565 12.8261 100.221C13.7748 100.885 14.5811 101.817 15.2451 103.019L21.6958 114.45L26.8658 103.019C27.4666 101.754 28.2255 100.806 29.1425 100.173C30.0595 99.5407 31.3559 99.2245 33.0318 99.2245H37.7749V99.936L34.9291 100.647V121.517L37.7749 122.229V122.94H24.4942V122.229L27.3401 121.517V104.916L18.9922 123.414H17.8538L7.41898 104.916ZM41.5491 122.94V122.229L44.3949 121.517V100.647L41.5491 99.936V99.2245H54.8298V99.936L51.9839 100.647V116.3L59.5729 103.256V100.647L56.727 99.936V99.2245H70.0078V99.936L67.1619 100.647V121.517L70.0078 122.229V122.94H56.727V122.229L59.5729 121.517V105.865L51.9839 118.908V121.517L54.8298 122.229V122.94H41.5491ZM73.7874 122.94V122.229L76.6333 121.517V100.647L73.7874 99.936V99.2245H87.0682V99.936L84.2223 100.647V110.371H91.337V100.647L88.4911 99.936V99.2245H101.772V99.936L98.926 100.647V121.517L101.772 122.229V122.94H88.4911V122.229L91.337 121.517V111.557H84.2223V121.517L87.0682 122.229V122.94H73.7874ZM118.132 123.652C114.211 123.652 111.128 122.545 108.883 120.331C106.669 118.086 105.563 115.003 105.563 111.082C105.563 107.161 106.669 104.094 108.883 101.881C111.128 99.6356 114.211 98.513 118.132 98.513C122.053 98.513 125.12 99.6356 127.334 101.881C129.579 104.094 130.701 107.161 130.701 111.082C130.701 115.003 129.579 118.086 127.334 120.331C125.12 122.545 122.053 123.652 118.132 123.652ZM118.132 122.703C119.397 122.703 120.456 121.818 121.31 120.047C122.195 118.276 122.638 115.288 122.638 111.082C122.638 106.877 122.195 103.889 121.31 102.118C120.456 100.347 119.397 99.4617 118.132 99.4617C116.867 99.4617 115.792 100.347 114.907 102.118C114.053 103.889 113.626 106.877 113.626 111.082C113.626 115.288 114.053 118.276 114.907 120.047C115.792 121.818 116.867 122.703 118.132 122.703ZM134.038 131.715L136.884 131.003V100.647L134.038 99.936V99.2245H138.307C140.172 99.2245 141.643 99.8253 142.718 101.027C143.129 101.501 143.477 102.086 143.761 102.782C144.172 101.96 144.694 101.248 145.327 100.647C146.75 99.2245 148.52 98.513 150.639 98.513C152.505 98.513 154.165 99.0032 155.619 99.9834C157.074 100.932 158.228 102.355 159.082 104.252C159.935 106.118 160.362 108.395 160.362 111.082C160.362 115.13 159.414 118.244 157.516 120.426C155.651 122.576 153.121 123.652 149.927 123.652C148.41 123.652 147.082 123.335 145.943 122.703C145.469 122.482 144.979 122.165 144.473 121.754V131.003L147.319 131.715V132.426H134.038V131.715ZM148.03 122.229C149.39 122.229 150.433 121.438 151.161 119.857C151.92 118.276 152.299 115.351 152.299 111.082C152.299 107.003 151.951 104.173 151.256 102.592C150.591 100.979 149.754 100.173 148.742 100.173C147.54 100.173 146.465 100.806 145.516 102.07C145.105 102.608 144.757 103.24 144.473 103.968V120.331C144.916 120.774 145.263 121.09 145.516 121.28C146.37 121.912 147.208 122.229 148.03 122.229Z" fill="#579994"/>
</svg>
