<svg width="178" height="140" viewBox="0 0 178 140" fill="none" xmlns="http://www.w3.org/2000/svg">
<path d="M66.0648 23.3C83.478 14.9 105.535 20.5 114.083 37.2C120.204 49.5 117.777 64 106.696 74C98.1474 81.8 85.9053 85.1 73.6633 82.9C51.6065 78.4 39.3644 56.1 46.7519 37.2C51.6065 26.1 62.6877 17.1 76.0906 14.9C96.881 12.7 117.777 26 121.365 45C123.792 57.3 118.938 69.5 109.123 77.3C109.123 76.2 110.389 76.2 110.389 75.1C95.7201 88.5 72.3969 89.6 55.3002 78.4C40.6309 67.3 36.9371 49.4 44.3246 33.8C54.1393 13.7 82.3172 4.80002 104.374 16C117.882 22.7 125.164 34.9 126.431 48.3C127.697 71.7 105.64 91.8 79.8899 89.5H81.1563C59.0995 89.5 38.3091 71.7 37.0427 51.6C35.7763 32.7 49.2847 15.9 68.9142 10.4C83.5836 7.10001 98.2529 8.20002 110.601 17.1C126.536 29.4 132.657 49.4 125.27 66.1C114.294 89.5 83.5836 98.4 59.0995 87.3C34.6154 75 26.0671 43.8 44.4301 22.7C60.3659 3.8 88.5437 -0.700003 110.601 12.7C131.391 26.1 137.512 50.6 126.536 70.7C114.294 91.9 86.1164 100.8 62.8987 91.9C44.5357 85.2 33.56 69.6 31.0272 51.8C28.5999 23.9 57.9386 3.90001 86.1164 3.90001C72.608 2.80001 60.3659 8.40002 49.3903 15C49.3903 12.8 50.6567 11.7 53.084 11.7C27.3335 27.3 22.4789 61.9 44.5357 81.9C64.1652 99.7 97.1976 100.8 116.827 81.9C136.457 64.1 136.457 32.9 114.4 16.1C93.6094 0.500021 64.1651 0.500021 45.8021 20.6C33.56 34 31.1327 51.8 38.4146 67.4C45.8021 81.9 62.8987 90.8 80.1009 94.2C78.8345 94.2 78.8345 94.2 77.6736 94.2C99.7304 95.3 120.521 83.1 127.908 64.1C131.602 51.8 130.336 38.5 121.787 27.3C107.118 7.2 76.5127 1.7 55.6168 16.2C28.7054 35.1 32.3992 74.2 63.0043 86.4C81.3674 94.2 103.424 88.6 115.666 76.4C129.175 63 130.336 44.1 119.36 28.5C109.545 16.2 94.8758 9.6 77.6736 11.8C54.4559 15.1 37.2537 35.2 40.9475 56.4C45.8021 82 78.94 96.5 103.424 83.2C119.36 74.3 126.642 56.4 121.787 39.7C113.239 16.3 80.1009 5.10002 58.1497 23C45.9076 31.9 41.053 46.4 44.6412 59.8C52.0286 84.3 85.0611 93.2 107.118 76.5C114.505 70.9 119.36 63.1 120.626 54.2C120.626 39.7 112.078 24.1 96.1422 18.5C80.2065 12.9 63.1098 17.4 53.2951 30.8C41.053 47.5 47.174 69.8 65.5371 78.7C82.6338 87.6 103.53 79.8 113.344 65.3C120.732 53 117.038 36.3 104.796 27.4C91.2876 17.4 72.9245 18.5 60.6825 28.5C48.4405 38.5 44.7467 56.4 56.9888 68.6C71.6581 83.1 98.6751 83.1 109.651 64.1C115.772 53 114.505 38.5 102.263 29.5C94.8758 25 87.5939 21.7 79.0456 22.8C63.1098 25 53.2951 37.3 53.2951 50.7C54.5615 65.2 70.3917 78.6 87.5939 76.3C103.53 73 114.505 58.5 109.651 42.9C104.796 27.3 85.1666 21.7 70.4972 28.4C58.2552 34 53.4006 48.5 58.2552 59.6C65.6427 71.9 85.1666 78.5 98.6751 67.4C112.184 56.3 107.223 36.2 91.2876 29.5C79.0456 25 65.5371 32.8 60.6825 42.9C58.2552 48.5 59.4161 54 61.9489 59.6C66.8035 66.3 74.191 70.7 82.7393 70.7C98.6751 70.7 107.223 56.2 102.369 43.9C98.6751 32.8 81.5784 26.1 70.4972 35C60.6825 42.8 59.5216 56.2 70.4972 64C76.6183 68.5 85.1666 69.6 91.2876 65.1C98.6751 60.6 103.53 51.7 98.6751 42.8C92.554 32.8 75.4574 31.7 69.3364 42.8C65.6427 50.6 70.6028 57.3 75.4574 62.9C66.9091 57.3 64.4818 48.4 70.6028 40.6C74.2965 37.3 80.4175 33.9 86.5386 35C101.208 36.1 103.635 51.7 97.5142 60.6C88.9658 70.6 73.0301 71.7 64.4818 59.5C58.3607 49.5 63.2154 38.3 73.0301 32.7C84.0057 26 97.5142 32.7 103.635 42.7C107.329 49.4 104.902 55 101.208 60.5C95.0869 73.9 71.8692 75 62.0544 61.6C53.5061 49.3 58.3607 34.8 71.8692 28.2C77.9902 26 85.3777 26 92.6596 28.2C100.047 31.5 106.168 37.1 108.595 44.9C112.289 61.6 98.7806 76.1 80.4175 75C58.3607 72.8 47.3851 49.4 60.788 33.8C70.6028 22.7 90.1267 20.4 102.474 30.5C108.595 36.1 112.289 43.9 112.289 52.8C111.023 68.4 95.1924 79.6 77.9902 77.3C62.0544 75.1 49.8124 61.7 51.0788 47.2C52.3452 39.4 54.7725 32.7 62.0544 28.3V29.4C73.0301 18.3 91.3931 19.4 103.741 28.3C115.983 38.3 119.676 53.9 111.128 66.2C101.313 78.5 84.2168 85.1 68.281 77.3C48.6515 67.3 45.0633 42.7 59.8382 28.6C61.2102 26.7 63.5319 24.8 66.0648 23.3Z" fill="white"/>
<path d="M13.1661 110.976V126.866L16.9605 128.289V129H7.94862V128.289L11.7431 126.866V106.707L8.42294 105.996V105.284H14.8261C16.3756 105.284 17.6246 105.616 18.5732 106.28C19.5218 106.945 20.3282 107.877 20.9922 109.079L27.4428 120.51L32.6128 109.079C33.2136 107.814 33.9725 106.865 34.8895 106.233C35.8065 105.601 37.103 105.284 38.7789 105.284H43.522V105.996L40.6761 106.707V127.577L43.522 128.289V129H30.2413V128.289L33.0871 127.577V110.976L24.7393 129.474H23.6009L13.1661 110.976ZM47.2961 129V128.289L50.142 127.577V106.707L47.2961 105.996V105.284H60.5769V105.996L57.731 106.707V122.36L65.32 109.316V106.707L62.4741 105.996V105.284H75.7548V105.996L72.909 106.707V127.577L75.7548 128.289V129H62.4741V128.289L65.32 127.577V111.925L57.731 124.968V127.577L60.5769 128.289V129H47.2961ZM79.5345 129V128.289L82.3804 127.577V106.707L79.5345 105.996V105.284H92.8152V105.996L89.9694 106.707V116.431H97.084V106.707L94.2382 105.996V105.284H107.519V105.996L104.673 106.707V127.577L107.519 128.289V129H94.2382V128.289L97.084 127.577V117.617H89.9694V127.577L92.8152 128.289V129H79.5345ZM123.879 129.711C119.958 129.711 116.875 128.605 114.63 126.391C112.416 124.146 111.31 121.063 111.31 117.142C111.31 113.221 112.416 110.154 114.63 107.941C116.875 105.695 119.958 104.573 123.879 104.573C127.8 104.573 130.867 105.695 133.081 107.941C135.326 110.154 136.448 113.221 136.448 117.142C136.448 121.063 135.326 124.146 133.081 126.391C130.867 128.605 127.8 129.711 123.879 129.711ZM123.879 128.763C125.144 128.763 126.203 127.877 127.057 126.107C127.942 124.336 128.385 121.348 128.385 117.142C128.385 112.937 127.942 109.948 127.057 108.178C126.203 106.407 125.144 105.522 123.879 105.522C122.614 105.522 121.539 106.407 120.654 108.178C119.8 109.948 119.373 112.937 119.373 117.142C119.373 121.348 119.8 124.336 120.654 126.107C121.539 127.877 122.614 128.763 123.879 128.763ZM139.785 137.775L142.631 137.063V106.707L139.785 105.996V105.284H144.054C145.92 105.284 147.39 105.885 148.465 107.087C148.876 107.561 149.224 108.146 149.508 108.842C149.92 108.02 150.441 107.308 151.074 106.707C152.497 105.284 154.267 104.573 156.386 104.573C158.252 104.573 159.912 105.063 161.366 106.043C162.821 106.992 163.975 108.415 164.829 110.312C165.682 112.178 166.109 114.454 166.109 117.142C166.109 121.19 165.161 124.304 163.264 126.486C161.398 128.636 158.868 129.711 155.675 129.711C154.157 129.711 152.829 129.395 151.69 128.763C151.216 128.541 150.726 128.225 150.22 127.814V137.063L153.066 137.775V138.486H139.785V137.775ZM153.777 128.289C155.137 128.289 156.18 127.498 156.908 125.917C157.667 124.336 158.046 121.411 158.046 117.142C158.046 113.063 157.698 110.233 157.003 108.652C156.339 107.039 155.501 106.233 154.489 106.233C153.287 106.233 152.212 106.865 151.263 108.13C150.852 108.668 150.505 109.3 150.22 110.028V126.391C150.663 126.834 151.01 127.15 151.263 127.34C152.117 127.972 152.955 128.289 153.777 128.289Z" fill="white"/>
</svg>
