<?xml version="1.0" encoding="utf-8"?>
<!-- Generator: Adobe Illustrator 23.1.0, SVG Export Plug-In . SVG Version: 6.00 Build 0)  -->
<svg version="1.1" id="Слой_1" xmlns="http://www.w3.org/2000/svg" xmlns:xlink="http://www.w3.org/1999/xlink" x="0px" y="0px"
	 viewBox="0 0 960 560" style="enable-background:new 0 0 960 560;" xml:space="preserve">
<style type="text/css">
	.st0{fill:#C8EDEB;stroke:#579994;stroke-width:15;stroke-miterlimit:10;}
	.st1{fill:#579994;}
	.st2{fill:#FDFFFF;}
</style>
<path class="st0" d="M632.5,549c5.2-0.2,9-2.9,11.3-4.6c50.6-37.1,72.6-59.6,72.6-59.6c33.8-34.6,29-26.8,45.1-44.7
	c13.2-14.7,30.3-35.4,47.6-61.8c25.3-38.6,40.7-62.1,48.8-97.4c10.5-45.4,2.3-82,0-91.6c-11.4-46.8-37.7-78.5-52.6-93.9
	c-38.3-39.7-82-55-96.4-59.6c-12.2-3.8-68-20.5-136.4-3.4c-59.4,14.8-95.1,46.7-103.9,55c-7.9,7.3-30.1,29.3-46.3,64.1
	c-22.7,48.8-19,91.6-17.5,104.2c3.8,32.1,14.9,53.8,31.3,85.9c21.3,41.7,45,70.2,60.1,88.2c6.5,7.8,30.4,36.1,60.1,61.8
	c3.8,3.3,10.9,9.4,23.8,20.6c0,0,9,7.9,35,30.9C615,543.3,624.2,549.4,632.5,549z"/>
<path class="st1" d="M594.3,163c44.8-22,101.6-7.3,123.6,36.4c15.8,32.2,9.5,70.2-19,96.3c-22,20.4-53.5,29.1-85.1,23.3
	c-56.8-11.8-88.3-70.2-69.3-119.6c12.5-29.1,41-52.6,75.5-58.4c53.5-5.8,107.3,29.1,116.6,78.8c6.2,32.2-6.2,64.1-31.5,84.6
	c0-2.9,3.3-2.9,3.3-5.8c-37.8,35.1-97.8,38-141.8,8.6c-37.8-29.1-47.3-75.9-28.3-116.8c25.3-52.6,97.8-75.9,154.6-46.6
	c34.8,17.5,53.5,49.5,56.8,84.6c3.3,61.3-53.5,113.9-119.8,107.9h3.3c-56.8,0-110.3-46.6-113.6-99.2c-3.3-49.5,31.5-93.5,82.1-107.9
	c37.8-8.6,75.5-5.8,107.3,17.5c41,32.2,56.8,84.6,37.8,128.3c-28.3,61.3-107.3,84.6-170.4,55.5c-63-32.2-85.1-113.9-37.8-169.1
	c41-49.5,113.6-61.3,170.4-26.2c53.5,35.1,69.3,99.2,41,151.8c-31.5,55.5-104.1,78.8-163.9,55.5c-47.3-17.5-75.5-58.4-82.1-105
	c-6.2-73,69.3-125.4,141.8-125.4c-34.8-2.9-66.3,11.8-94.6,29.1c0-5.8,3.3-8.6,9.5-8.6c-66.3,40.8-78.8,131.4-22,183.8
	c50.5,46.6,135.6,49.5,186.1,0c50.6-46.6,50.6-128.3-6.2-172.3c-53.5-40.8-129.4-40.8-176.6,11.8c-31.5,35.1-37.8,81.7-19,122.5
	c19,38,63,61.3,107.3,70.2c-3.3,0-3.3,0-6.2,0c56.8,2.9,110.3-29.1,129.4-78.8c9.5-32.2,6.2-67-15.8-96.3
	c-37.8-52.6-116.6-67-170.4-29.1c-69.3,49.5-59.8,151.8,19,183.8c47.3,20.4,104.1,5.8,135.6-26.2c34.8-35.1,37.8-84.6,9.5-125.4
	c-25.3-32.2-63-49.5-107.3-43.7c-59.8,8.6-104.1,61.3-94.6,116.8c12.5,67,97.8,105,160.9,70.2c41-23.3,59.8-70.2,47.3-113.9
	c-22-61.3-107.3-90.6-163.9-43.7c-31.5,23.3-44,61.3-34.8,96.3c19,64.1,104.1,87.4,160.9,43.7c19-14.7,31.5-35.1,34.8-58.4
	c0-38-22-78.8-63-93.5c-41-14.7-85.1-2.9-110.3,32.2c-31.5,43.7-15.8,102.1,31.5,125.4c44,23.3,97.8,2.9,123.1-35.1
	c19-32.2,9.5-75.9-22-99.2c-34.8-26.2-82.1-23.3-113.6,2.9c-31.5,26.2-41,73-9.5,105c37.8,38,107.3,38,135.6-11.8
	c15.8-29.1,12.5-67-19-90.6c-19-11.8-37.8-20.4-59.8-17.5c-41,5.8-66.3,38-66.3,73c3.3,38,44,73,88.3,67c41-8.6,69.3-46.6,56.8-87.4
	c-12.5-40.8-63-55.5-100.8-38c-31.5,14.7-44,52.6-31.5,81.7c19,32.2,69.3,49.5,104.1,20.4c34.8-29.1,22-81.7-19-99.2
	c-31.5-11.8-66.3,8.6-78.8,35.1c-6.2,14.7-3.3,29.1,3.3,43.7c12.5,17.5,31.5,29.1,53.5,29.1c41,0,63-38,50.5-70.2
	c-9.5-29.1-53.5-46.6-82.1-23.3c-25.3,20.4-28.3,55.5,0,75.9c15.8,11.8,37.8,14.7,53.5,2.9c19-11.8,31.5-35.1,19-58.4
	c-15.8-26.2-59.8-29.1-75.5,0c-9.5,20.4,3.3,38,15.8,52.6c-22-14.7-28.3-38-12.5-58.4c9.5-8.6,25.3-17.5,41-14.7
	c37.8,2.9,44,43.7,28.3,67c-22,26.2-63,29.1-85.1-2.9c-15.8-26.2-3.3-55.5,22-70.2c28.3-17.5,63,0,78.8,26.2
	c9.5,17.5,3.3,32.2-6.2,46.6c-15.8,35.1-75.5,38-100.8,2.9c-22-32.2-9.5-70.2,25.3-87.4c15.8-5.8,34.8-5.8,53.5,0
	c19,8.6,34.8,23.3,41,43.7c9.5,43.7-25.3,81.7-72.6,78.8c-56.8-5.8-85.1-67-50.5-107.9c25.3-29.1,75.5-35.1,107.3-8.6
	c15.8,14.7,25.3,35.1,25.3,58.4c-3.3,40.8-44,70.2-88.3,64.1c-41-5.8-72.6-40.8-69.3-78.8c3.3-20.4,9.5-38,28.3-49.5v2.9
	c28.3-29.1,75.5-26.2,107.3-2.9c31.5,26.2,41,67,19,99.2c-25.3,32.2-69.3,49.5-110.3,29.1c-50.5-26.2-59.8-90.6-21.7-127.5
	C581.8,171.9,587.8,167,594.3,163z"/>
<g>
	<g>
		<path class="st1" d="M478,505.6c4.7,0.1,9.4,0.2,14.1,0.3c-0.4-0.9-0.7-1.7-1.1-2.6c-0.4,0.4-0.8,0.5-1.3,0.4
			c-1.9-0.4-2.7,2.5-0.8,2.9c1.5,0.4,3.1,0,4.2-1.2c0.9-0.9,0.2-2.5-1.1-2.6c-4.7-0.1-9.4-0.2-14.1-0.3
			C476.1,502.6,476.1,505.6,478,505.6L478,505.6z"/>
	</g>
</g>
<g>
	<g>
		<path class="st2" d="M476.8,505c7,1.8,14.3-0.3,21.3,1.7c0-1,0-1.9,0-2.9c-3.5,0.6-7,0.8-10.5,0.6c-1.8-0.1-3.5-0.3-5.2-0.6
			c-1.1-0.2-3.1-0.3-3.8-1.4c-0.3,0.7-0.6,1.5-0.9,2.2c1.4-0.5,3.6-0.8,4.9,0.2c0.6,0.4,0.5,0.4-0.1,0.6c-0.6,0.3-1.4,0.5-2.1,0.5
			c-1.4,0.1-1.3-1-1.2-2.1c0.1-1.4,0.2-2.8-0.7-3.9c-0.4,0.8-0.9,1.5-1.3,2.3c2.5,0.1,6.3,0.1,7.4,2.8c0.3,0.8,1,1.3,1.9,1
			c0.7-0.2,1.4-1.1,1-1.9c-1.8-4.3-6.2-4.9-10.3-5c-1,0-2,1.3-1.3,2.3c0.6,0.8,0.3,1.8,0.2,2.7c-0.1,1.1,0,2.2,0.6,3.2
			c1.4,2.1,4.2,1.8,6.3,1.1c1.1-0.4,2.2-0.9,2.6-2.1c0.5-1.2,0-2.5-0.9-3.4c-2-2-5.5-2-8-1.1c-0.8,0.3-1.5,1.4-0.9,2.2
			c1.1,1.5,2.6,2.1,4.4,2.5c2,0.4,4,0.7,6,0.9c4.2,0.3,8.4,0.1,12.5-0.7c1.5-0.3,1.3-2.5,0-2.9c-7-2-14.3,0.1-21.3-1.7
			C475.7,501.6,474.9,504.5,476.8,505L476.8,505z"/>
	</g>
</g>
</svg>
